<mxfile host="app.diagrams.net" agent="Mozilla/5.0 (X11; Linux x86_64) AppleWebKit/537.36 (KHTML, like Gecko) Chrome/130.0.0.0 Safari/537.36" version="24.8.6">
  <diagram name="Page-1" id="FDkrDPzU8KJvV0fg2I_x">
    <mxGraphModel dx="1444" dy="771" grid="1" gridSize="10" guides="1" tooltips="1" connect="1" arrows="1" fold="1" page="1" pageScale="1" pageWidth="827" pageHeight="1169" math="0" shadow="0">
      <root>
        <mxCell id="0" />
        <mxCell id="1" parent="0" />
        <mxCell id="0DNVQN3w0KfdkBiwtcXZ-4" style="edgeStyle=orthogonalEdgeStyle;rounded=0;orthogonalLoop=1;jettySize=auto;html=1;entryX=0.5;entryY=0;entryDx=0;entryDy=0;" edge="1" parent="1" source="0DNVQN3w0KfdkBiwtcXZ-1" target="0DNVQN3w0KfdkBiwtcXZ-3">
          <mxGeometry relative="1" as="geometry" />
        </mxCell>
        <mxCell id="0DNVQN3w0KfdkBiwtcXZ-1" value="Initialisation du board" style="rounded=1;whiteSpace=wrap;html=1;" vertex="1" parent="1">
          <mxGeometry x="350" y="370" width="120" height="60" as="geometry" />
        </mxCell>
        <mxCell id="0DNVQN3w0KfdkBiwtcXZ-5" style="edgeStyle=orthogonalEdgeStyle;rounded=0;orthogonalLoop=1;jettySize=auto;html=1;" edge="1" parent="1" source="0DNVQN3w0KfdkBiwtcXZ-3">
          <mxGeometry relative="1" as="geometry">
            <mxPoint x="410" y="470" as="targetPoint" />
            <Array as="points">
              <mxPoint x="510" y="585" />
              <mxPoint x="510" y="470" />
            </Array>
          </mxGeometry>
        </mxCell>
        <mxCell id="0DNVQN3w0KfdkBiwtcXZ-6" value="No" style="edgeLabel;html=1;align=center;verticalAlign=middle;resizable=0;points=[];" vertex="1" connectable="0" parent="0DNVQN3w0KfdkBiwtcXZ-5">
          <mxGeometry x="-0.2385" y="-2" relative="1" as="geometry">
            <mxPoint as="offset" />
          </mxGeometry>
        </mxCell>
        <mxCell id="0DNVQN3w0KfdkBiwtcXZ-8" style="edgeStyle=orthogonalEdgeStyle;rounded=0;orthogonalLoop=1;jettySize=auto;html=1;" edge="1" parent="1" source="0DNVQN3w0KfdkBiwtcXZ-3" target="0DNVQN3w0KfdkBiwtcXZ-7">
          <mxGeometry relative="1" as="geometry" />
        </mxCell>
        <mxCell id="0DNVQN3w0KfdkBiwtcXZ-9" value="Yes" style="edgeLabel;html=1;align=center;verticalAlign=middle;resizable=0;points=[];" vertex="1" connectable="0" parent="0DNVQN3w0KfdkBiwtcXZ-8">
          <mxGeometry x="0.32" y="-1" relative="1" as="geometry">
            <mxPoint as="offset" />
          </mxGeometry>
        </mxCell>
        <mxCell id="0DNVQN3w0KfdkBiwtcXZ-3" value="Input utilisateur ?" style="rhombus;whiteSpace=wrap;html=1;" vertex="1" parent="1">
          <mxGeometry x="355" y="540" width="110" height="90" as="geometry" />
        </mxCell>
        <mxCell id="0DNVQN3w0KfdkBiwtcXZ-13" style="edgeStyle=orthogonalEdgeStyle;rounded=0;orthogonalLoop=1;jettySize=auto;html=1;entryX=0.5;entryY=0;entryDx=0;entryDy=0;" edge="1" parent="1" source="0DNVQN3w0KfdkBiwtcXZ-7" target="0DNVQN3w0KfdkBiwtcXZ-10">
          <mxGeometry relative="1" as="geometry" />
        </mxCell>
        <mxCell id="0DNVQN3w0KfdkBiwtcXZ-7" value="status.changed = true" style="rounded=1;whiteSpace=wrap;html=1;" vertex="1" parent="1">
          <mxGeometry x="350" y="670" width="120" height="60" as="geometry" />
        </mxCell>
        <mxCell id="0DNVQN3w0KfdkBiwtcXZ-11" style="edgeStyle=orthogonalEdgeStyle;rounded=0;orthogonalLoop=1;jettySize=auto;html=1;" edge="1" parent="1" source="0DNVQN3w0KfdkBiwtcXZ-10">
          <mxGeometry relative="1" as="geometry">
            <mxPoint x="620" y="740" as="targetPoint" />
          </mxGeometry>
        </mxCell>
        <mxCell id="0DNVQN3w0KfdkBiwtcXZ-10" value="Matches ?" style="rhombus;whiteSpace=wrap;html=1;" vertex="1" parent="1">
          <mxGeometry x="370" y="770" width="80" height="80" as="geometry" />
        </mxCell>
        <mxCell id="0DNVQN3w0KfdkBiwtcXZ-14" style="edgeStyle=orthogonalEdgeStyle;rounded=0;orthogonalLoop=1;jettySize=auto;html=1;" edge="1" parent="1" source="0DNVQN3w0KfdkBiwtcXZ-12">
          <mxGeometry relative="1" as="geometry">
            <mxPoint x="410" y="450" as="targetPoint" />
            <Array as="points">
              <mxPoint x="620" y="450" />
            </Array>
          </mxGeometry>
        </mxCell>
        <mxCell id="0DNVQN3w0KfdkBiwtcXZ-12" value="status.changed = false" style="rounded=1;whiteSpace=wrap;html=1;" vertex="1" parent="1">
          <mxGeometry x="560" y="680" width="120" height="60" as="geometry" />
        </mxCell>
      </root>
    </mxGraphModel>
  </diagram>
</mxfile>
